#!OML:ASF G:\JayActor3\Patient Classification 1\Patient 1\Session 5\male.ASF
:FULLY-SPECIFIED
:DEGREES
497
root -24.2022 16.6539 -6.0976 734.388 -94.701 -739.838
lowerback 1.58853 -0.679518 -1.84251
upperback 2.49274 -0.938443 -1.32396
thorax 1.67148 -0.505791 -0.324343
lowerneck -12.8867 1.62072 4.48386
upperneck 17.5387 1.3507 -1.10202
head 7.56702 0.780169 -0.971723
rclavicle -2.26894e-015 1.39149e-015
rhumerus -36.97 -8.70758 -85.871
rradius 25.6614
rwrist 5.55723
rhand -18.2035 -4.19282
rfingers 7.12502
rthumb 8.07392 -34.0186
lclavicle -2.26894e-015 1.39149e-015
lhumerus -16.755 -10.1593 86.367
lradius 38.0463
lwrist 16.888
lhand -18.6517 14.4829
lfingers 7.12502
lthumb 7.6413 44.3249
rfemur -30.8799 7.39813 19.4455
rtibia 40.8177
rfoot -17.7861 -14.6417
rtoes -0.756625
lfemur 9.99055 11.0558 -23.6057
ltibia 17.1741
lfoot -17.7254 7.47649
ltoes -6.29988
498
root -24.3453 16.651 -6.109 735.384 -94.6801 -740.747
lowerback 1.54775 -0.666111 -1.93902
upperback 2.48727 -0.919802 -1.33362
thorax 1.69007 -0.498162 -0.280809
lowerneck -12.8398 1.59515 4.4992
upperneck 17.3866 1.31308 -1.07454
head 7.50766 0.765758 -0.968862
rclavicle 1.03477e-014 1.27222e-014
rhumerus -37.0647 -8.98947 -85.7725
rradius 25.4123
rwrist 5.77573
rhand -18.1432 -4.21329
rfingers 7.12502
rthumb 8.13216 -34.0368
lclavicle 1.03477e-014 1.27222e-014
lhumerus -16.6134 -10.4854 86.4283
lradius 38.6213
lwrist 17.1114
lhand -18.691 14.4246
lfingers 7.12502
lthumb 7.60342 44.2679
rfemur -31.0989 7.79 19.187
rtibia 38.8707
rfoot -17.3874 -14.6369
rtoes -1.8057
lfemur 11.0241 11.2553 -23.545
ltibia 16.1242
lfoot -17.5761 7.36053
ltoes -6.3189
499
root -24.4885 16.6466 -6.12039 736.524 -94.6546 -741.796
lowerback 1.50693 -0.657906 -2.03103
upperback 2.47569 -0.907998 -1.34886
thorax 1.70227 -0.493733 -0.245434
lowerneck -12.7808 1.57141 4.50771
upperneck 17.2181 1.27945 -1.04209
head 7.44086 0.753128 -0.962838
rclavicle -1.53716e-014 -7.35503e-015
rhumerus -37.1435 -9.28129 -85.6701
rradius 25.1278
rwrist 6.04168
rhand -18.0687 -4.33445
rfingers 7.12502
rthumb 8.204 -34.1552
lclavicle -1.53716e-014 -7.35503e-015
lhumerus -16.5114 -10.7754 86.4956
lradius 39.1746
lwrist 17.3206
lhand -18.729 14.3611
lfingers 7.12502
lthumb 7.56675 44.2058
rfemur -31.2919 8.18846 18.9026
rtibia 36.9554
rfoot -17.1163 -14.5518
rtoes -2.25908
lfemur 12.087 11.4504 -23.4884
ltibia 15.0111
lfoot -17.387 7.23336
ltoes -6.36305
500
root -24.632 16.6413 -6.13156 737.932 -94.6119 -743.109
lowerback 1.47163 -0.659571 -2.12261
upperback 2.45849 -0.909495 -1.3706
thorax 1.70561 -0.495794 -0.21683
lowerneck -12.7209 1.54827 4.51453
upperneck 17.0453 1.24758 -1.0113
head 7.37269 0.74097 -0.956886
rclavicle -3.72721e-017 7.55382e-015
rhumerus -37.2049 -9.60779 -85.5481
rradius 24.7978
rwrist 6.38362
rhand -17.9844 -4.44133
rfingers 7.12502
rthumb 8.28536 -34.2589
lclavicle -3.72721e-017 7.55382e-015
lhumerus -16.4479 -11.0337 86.5712
lradius 39.6955
lwrist 17.5091
lhand -18.7764 14.2936
lfingers 7.12502
lthumb 7.52093 44.1399
rfemur -31.4515 8.58757 18.5849
rtibia 35.0862
rfoot -16.8271 -14.5219
rtoes -2.52907
lfemur 13.1954 11.6219 -23.4418
ltibia 13.8127
lfoot -17.1469 7.09756
ltoes -6.46832
501
root -24.776 16.6344 -6.14249 739.623 -94.5418 -744.708
lowerback 1.4448 -0.675149 -2.20923
upperback 2.43745 -0.929795 -1.39624
thorax 1.70037 -0.507038 -0.194871
lowerneck -12.6546 1.52579 4.51676
upperneck 16.8673 1.21849 -0.982763
head 7.30189 0.72952 -0.950653
rclavicle -8.36138e-015 -1.35174e-014
rhumerus -37.2605 -9.96397 -85.4038
rradius 24.4465
rwrist 6.7996
rhand -17.8894 -4.59577
rfingers 7.12502
rthumb 8.37708 -34.4096
lclavicle -8.36138e-015 -1.35174e-014
lhumerus -16.4214 -11.263 86.6577
lradius 40.1752
lwrist 17.681
lhand -18.8183 14.2346
lfingers 7.12502
lthumb 7.48051 44.0824
rfemur -31.5719 8.99459 18.231
rtibia 33.2798
rfoot -16.6067 -14.5143
rtoes -2.07889
lfemur 14.3725 11.7523 -23.3984
ltibia 12.502
lfoot -16.8447 6.94224
ltoes -6.62372
